<svg width="30" height="30" viewBox="0 0 30 30" fill="none" xmlns="http://www.w3.org/2000/svg">
<path d="M23.749 17.5C24.0115 17.5001 24.2673 17.4175 24.4802 17.2641C24.6931 17.1106 24.8523 16.894 24.9353 16.645L27.4353 9.145C27.4979 8.95708 27.5149 8.75698 27.485 8.56119C27.4551 8.3654 27.3791 8.17952 27.2632 8.01887C27.1474 7.85822 26.995 7.7274 26.8187 7.63718C26.6423 7.54697 26.4471 7.49995 26.249 7.5H8.74902V2.5C8.74902 2.16848 8.61733 1.85054 8.38291 1.61612C8.14849 1.3817 7.83054 1.25 7.49902 1.25H3.74902C3.4175 1.25 3.09956 1.3817 2.86514 1.61612C2.63072 1.85054 2.49902 2.16848 2.49902 2.5C2.49902 2.83152 2.63072 3.14946 2.86514 3.38388C3.09956 3.6183 3.4175 3.75 3.74902 3.75H6.24902V21.25C6.24902 21.5815 6.38072 21.8995 6.61514 22.1339C6.84956 22.3683 7.1675 22.5 7.49902 22.5H22.499C22.8305 22.5 23.1485 22.3683 23.3829 22.1339C23.6173 21.8995 23.749 21.5815 23.749 21.25C23.749 20.9185 23.6173 20.6005 23.3829 20.3661C23.1485 20.1317 22.8305 20 22.499 20H8.74902V17.5H23.749ZM8.74902 10H24.5153L22.8478 15H8.74902V10ZM8.12402 23.75C8.49486 23.75 8.85738 23.86 9.16572 24.066C9.47406 24.272 9.71438 24.5649 9.8563 24.9075C9.99821 25.2501 10.0353 25.6271 9.963 25.9908C9.89065 26.3545 9.71207 26.6886 9.44985 26.9508C9.18763 27.213 8.85353 27.3916 8.48982 27.464C8.1261 27.5363 7.7491 27.4992 7.40649 27.3573C7.06388 27.2154 6.77105 26.975 6.56502 26.6667C6.35899 26.3584 6.24902 25.9958 6.24902 25.625C6.24902 25.1277 6.44657 24.6508 6.7982 24.2992C7.14983 23.9475 7.62674 23.75 8.12402 23.75ZM20.624 23.75C20.9949 23.75 21.3574 23.86 21.6657 24.066C21.9741 24.272 22.2144 24.5649 22.3563 24.9075C22.4982 25.2501 22.5353 25.6271 22.463 25.9908C22.3906 26.3545 22.2121 26.6886 21.9498 26.9508C21.6876 27.213 21.3535 27.3916 20.9898 27.464C20.6261 27.5363 20.2491 27.4992 19.9065 27.3573C19.5639 27.2154 19.271 26.975 19.065 26.6667C18.859 26.3584 18.749 25.9958 18.749 25.625C18.749 25.1277 18.9466 24.6508 19.2982 24.2992C19.6498 23.9475 20.1267 23.75 20.624 23.75Z" fill="white"/>
</svg>
