<svg width="30" height="30" viewBox="0 0 30 30" fill="none" xmlns="http://www.w3.org/2000/svg">
<path d="M15.001 1.61133C11.425 1.61133 8.0623 3.0041 5.53398 5.53301C3.00508 8.06133 1.6123 11.424 1.6123 15C1.6123 18.576 3.00508 21.9387 5.53398 24.467C8.0623 26.9959 11.425 28.3887 15.001 28.3887C18.577 28.3887 21.9396 26.9959 24.468 24.467C26.9969 21.9387 28.3896 18.576 28.3896 15C28.3896 11.424 26.9969 8.06133 24.468 5.53301C21.9396 3.0041 18.577 1.61133 15.001 1.61133ZM15.001 26.5137C8.65234 26.5137 3.4873 21.3486 3.4873 15C3.4873 8.65137 8.65234 3.48633 15.001 3.48633C21.3496 3.48633 26.5146 8.65137 26.5146 15C26.5146 21.3486 21.3496 26.5137 15.001 26.5137Z" fill="#3EA36C"/>
<path d="M20.374 7.72324C19.4348 7.72324 18.5523 8.08886 17.8879 8.75273L12.898 13.7426L12.1135 12.958C11.4496 12.2941 10.5666 11.9279 9.62734 11.9279C8.68809 11.9279 7.80508 12.2935 7.14121 12.9574C6.47793 13.6207 6.1123 14.5037 6.1123 15.4435C6.1123 16.3834 6.47793 17.2658 7.14121 17.9297L10.491 21.2795C11.1338 21.9223 11.9887 22.2762 12.898 22.2762C13.8074 22.2762 14.6617 21.9223 15.3051 21.2795L22.8602 13.7244C23.5234 13.0611 23.8891 12.1781 23.8891 11.2383C23.8891 10.2984 23.5234 9.41601 22.8602 8.75273C22.1963 8.08886 21.3133 7.72324 20.374 7.72324ZM21.5342 12.399L13.9797 19.9541C13.6908 20.243 13.307 20.4018 12.8986 20.4018C12.4902 20.4018 12.1064 20.243 11.8176 19.9541L8.46777 16.6043C8.1584 16.2949 7.98848 15.883 7.98848 15.4441C7.98848 15.0053 8.15898 14.5934 8.46836 14.284C8.77832 13.974 9.19023 13.8035 9.62852 13.8035C10.0668 13.8035 10.4787 13.974 10.7887 14.284L12.2365 15.7312C12.6027 16.0975 13.1963 16.0975 13.5625 15.7312L19.215 10.0787C19.525 9.76874 19.9369 9.59824 20.3752 9.59824C20.8135 9.59824 21.2254 9.76874 21.5353 10.0787C21.8447 10.3881 22.0147 10.8 22.0147 11.2389C22.0147 11.6777 21.8436 12.0896 21.5342 12.399Z" fill="#3EA36C"/>
</svg>
