<svg width="30" height="30" viewBox="0 0 30 30" fill="none" xmlns="http://www.w3.org/2000/svg">
<g clip-path="url(#clip0_26_177)">
<path d="M28.9041 28.8497C28.6856 28.9153 28.5769 28.8075 28.4606 28.7531C25.2675 27.2316 22.0556 25.7494 18.9778 23.9991C18.8925 23.9503 18.7866 23.8978 18.6778 23.8519L18.6562 23.8434C18.1322 23.6213 17.8913 23.6953 17.6006 24.1978C17.4825 24.405 17.3559 24.6609 17.2434 24.9234L17.2228 24.9769C16.5291 26.5275 15.8409 28.0819 15.1434 29.6325C15.09 29.7516 15.0684 29.8988 14.9081 29.9991C14.6522 29.4638 14.3963 28.9388 14.1497 28.41C13.5509 27.1325 12.9531 25.8541 12.3563 24.5747C12.2766 24.3966 12.1978 24.2494 12.1097 24.1078L12.1191 24.1247C11.8725 23.7338 11.5959 23.64 11.1638 23.8116C10.965 23.9006 10.8009 23.9869 10.6434 24.0816L10.665 24.0694C7.57031 25.7484 4.44656 27.3722 1.33125 29.0016C1.27219 29.0503 1.19531 29.0794 1.11188 29.0794C1.1025 29.0794 1.09219 29.0794 1.08281 29.0784C0.969375 28.9575 1.11 28.8628 1.15125 28.7709C2.65781 25.5347 4.13719 22.2834 5.925 19.1869C5.96719 19.1128 6.00938 19.0388 6.04406 18.9609C6.31594 18.3469 6.15281 17.9034 5.53219 17.6297C4.95656 17.3766 4.36781 17.1534 3.79219 16.8938C2.52563 16.3238 1.26375 15.7331 0 15.1509C0.058125 14.9466 0.233438 14.9391 0.362813 14.8772C2.00094 14.0941 3.64438 13.315 5.29313 12.54C5.37 12.5034 5.44875 12.4706 5.52469 12.4378C6.27938 12.0638 6.38156 11.7591 5.97094 11.0259C4.99219 9.26438 4.06031 7.48594 3.135 5.70563C2.405 4.30313 1.67938 2.89782 0.958125 1.48969C0.909375 1.39407 0.8025 1.30782 0.845625 1.17375C1.00125 1.1025 1.11 1.22063 1.2225 1.27594C4.44281 2.81625 7.6725 4.33969 10.7906 6.08719C10.8047 6.09563 10.8169 6.10782 10.8328 6.11625C11.6278 6.54282 11.9184 6.45282 12.3 5.61844C13.0828 3.90282 13.8544 2.17969 14.6306 0.460317C14.6991 0.30938 14.7263 0.134067 14.9053 -0.00280762C15.2306 0.713442 15.5513 1.41469 15.8672 2.11875C16.3628 3.22 16.8563 4.32188 17.3475 5.42438C17.3747 5.48719 17.4028 5.54907 17.4319 5.61094C17.8341 6.46782 18.1481 6.57094 18.9872 6.09844C22.0678 4.35844 25.2319 2.77594 28.3866 1.17563C28.4719 1.1325 28.5506 1.05469 28.6669 1.07344C28.7353 1.22438 28.6172 1.33125 28.5647 1.44282C27.0609 4.66219 25.5713 7.89282 23.8294 10.9913C23.8209 11.0063 23.8088 11.0194 23.8022 11.0344C23.3878 11.8172 23.4666 12.0994 24.2775 12.4678C26.0109 13.2572 27.7125 14.1122 29.4197 14.9541L29.7028 15.1003C29.6334 15.2916 29.4422 15.2991 29.3025 15.3609C27.6909 16.0875 26.0747 16.8047 24.4613 17.5266C23.4375 17.9841 23.3438 18.2709 23.8913 19.2384C25.6688 22.3809 27.2644 25.6134 28.9031 28.8488L28.9041 28.8497ZM7.09969 7.26938C7.08469 7.2225 7.04813 7.18407 7.01156 7.22625C6.975 7.26844 7.01813 7.29563 7.06406 7.30313C7.10906 7.59563 7.28531 7.83376 7.41656 8.08594C8.31094 9.82594 9.21656 11.5528 10.1231 13.2947C8.9325 13.8609 7.74469 14.4272 6.50625 15.0178C7.73438 15.6563 8.94563 16.1794 10.1438 16.725C9.02625 18.7313 8.07844 20.7628 7.17469 22.8131L7.26375 22.8872C9.2325 21.8522 11.2013 20.8181 13.1897 19.7719L14.9391 23.4684L16.6078 19.7588C18.6197 20.8641 20.6494 21.8269 22.7428 22.7756C22.7316 22.7091 22.7175 22.6509 22.7006 22.5947L22.7034 22.6041C21.7772 20.7469 20.8538 18.8897 19.8534 17.0756C19.6491 16.7025 19.6491 16.7016 20.0513 16.5206C20.8275 16.1747 21.6066 15.8334 22.38 15.4828C22.6491 15.36 22.9388 15.2784 23.2378 15.0488L19.6659 13.29C20.7772 11.2713 21.7981 9.21688 22.7288 7.12688C20.6494 8.11313 18.6197 9.13407 16.6013 10.2544L14.8922 6.46688C14.3072 7.75782 13.7484 8.98969 13.1822 10.2394C11.3822 9.24188 9.57 8.38032 7.75594 7.52719C7.54313 7.42969 7.34438 7.28438 7.09875 7.26844L7.09969 7.26938Z" fill="#FF0000"/>
<path d="M14.9128 11.9784C16.5535 11.9869 17.88 13.3191 17.88 14.9606C17.88 16.6078 16.545 17.9428 14.8978 17.9428C13.2507 17.9428 11.9156 16.6078 11.9156 14.9606V14.9597C11.9213 13.3116 13.2581 11.9784 14.9072 11.9784C14.9091 11.9784 14.911 11.9784 14.9128 11.9784ZM15.75 14.9391C15.7388 14.4863 15.3694 14.1225 14.9147 14.1225C14.4535 14.1225 14.0794 14.4966 14.0794 14.9578C14.0794 14.9644 14.0794 14.9719 14.0794 14.9784V14.9775C14.0972 15.4275 14.4666 15.7866 14.9194 15.7866C14.9335 15.7866 14.9475 15.7866 14.9606 15.7856H14.9588C15.4022 15.7538 15.75 15.3863 15.75 14.9372V14.9391Z" fill="#FF0000"/>
</g>
<defs>
<clipPath id="clip0_26_177">
<rect width="30" height="30" fill="white" transform="translate(0.000976562)"/>
</clipPath>
</defs>
</svg>
