<svg width="40" height="40" viewBox="0 0 40 40" fill="none" xmlns="http://www.w3.org/2000/svg">
<g clip-path="url(#clip0_26_141)">
<path fill-rule="evenodd" clip-rule="evenodd" d="M25.001 10C25.001 12.177 23.6096 14.0291 21.6676 14.7155V18.3333H26.6676C29.4291 18.3333 31.6676 20.5718 31.6676 23.3333V25.2845C33.6096 25.9708 35.001 27.823 35.001 30C35.001 32.7615 32.7625 35 30.001 35C27.2395 35 25.001 32.7615 25.001 30C25.001 27.823 26.3923 25.9708 28.3343 25.2845V23.3333C28.3343 22.4128 27.5881 21.6667 26.6676 21.6667H13.3343C12.4138 21.6667 11.6676 22.4128 11.6676 23.3333V25.2845C13.6096 25.9708 15.001 27.823 15.001 30C15.001 32.7615 12.7624 35 10.001 35C7.23956 35 5.00098 32.7615 5.00098 30C5.00098 27.823 6.39233 25.9708 8.33431 25.2845V23.3333C8.33431 20.5718 10.5729 18.3333 13.3343 18.3333H18.3343V14.7155C16.3923 14.0291 15.001 12.177 15.001 10C15.001 7.23858 17.2395 5 20.001 5C22.7625 5 25.001 7.23858 25.001 10ZM20.001 8.33333C19.0805 8.33333 18.3343 9.07953 18.3343 10C18.3343 10.9205 19.0805 11.6667 20.001 11.6667C20.9215 11.6667 21.6676 10.9205 21.6676 10C21.6676 9.07953 20.9215 8.33333 20.001 8.33333ZM10.001 28.3333C9.08051 28.3333 8.33431 29.0795 8.33431 30C8.33431 30.9205 9.08051 31.6667 10.001 31.6667C10.9214 31.6667 11.6676 30.9205 11.6676 30C11.6676 29.0795 10.9214 28.3333 10.001 28.3333ZM30.001 28.3333C29.0805 28.3333 28.3343 29.0795 28.3343 30C28.3343 30.9205 29.0805 31.6667 30.001 31.6667C30.9215 31.6667 31.6676 30.9205 31.6676 30C31.6676 29.0795 30.9215 28.3333 30.001 28.3333Z" fill="#FF0000"/>
</g>
<defs>
<clipPath id="clip0_26_141">
<rect width="40" height="40" fill="white" transform="translate(0.000976562)"/>
</clipPath>
</defs>
</svg>
