<svg width="40" height="40" viewBox="0 0 40 40" fill="none" xmlns="http://www.w3.org/2000/svg">
<path d="M25.0012 22.5V15M25.0012 15H17.5012M25.0012 15L15.0014 24.9998M12.0014 33.3333H28.0014C29.8682 33.3333 30.8017 33.3333 31.5147 32.97C32.1419 32.6505 32.6519 32.1405 32.9715 31.5133C33.3347 30.8003 33.3347 29.8668 33.3347 28V12C33.3347 10.1332 33.3347 9.19973 32.9715 8.4867C32.6519 7.85948 32.1419 7.34955 31.5147 7.02998C30.8017 6.66667 29.8682 6.66667 28.0014 6.66667H12.0014C10.1346 6.66667 9.20117 6.66667 8.48812 7.02998C7.86092 7.34955 7.35099 7.85948 7.03141 8.4867C6.66809 9.19973 6.66809 10.1332 6.66809 12V28C6.66809 29.8668 6.66809 30.8003 7.03141 31.5133C7.35099 32.1405 7.86092 32.6505 8.48812 32.97C9.20117 33.3333 10.1346 33.3333 12.0014 33.3333Z" stroke="#6BB88A" stroke-width="3" stroke-linecap="round" stroke-linejoin="round"/>
</svg>
