<svg width="40" height="40" viewBox="0 0 40 40" fill="none" xmlns="http://www.w3.org/2000/svg">
<path fill-rule="evenodd" clip-rule="evenodd" d="M28.32 9.00413L30.8256 10.9993C31.0675 11.2271 31.204 11.5451 31.2021 11.8774C31.2003 12.2097 31.0605 12.5263 30.816 12.7513L28.912 15.0297L22.4336 22.7562C22.3202 22.8859 22.1693 22.9771 22.0016 23.017L18.6416 23.7786C18.2008 23.8006 17.817 23.4802 17.76 23.0426V19.5898C17.7714 19.4232 17.8384 19.2654 17.9504 19.1418L24.3088 11.9529L26.4912 9.34653C26.9229 8.78058 27.7127 8.63272 28.32 9.00413Z" stroke="#3EA36C" stroke-width="2" stroke-linecap="round" stroke-linejoin="round"/>
<path d="M19.2528 12.9898C19.9155 12.9898 20.4528 12.4526 20.4528 11.7898C20.4528 11.1271 19.9155 10.5898 19.2528 10.5898V12.9898ZM14.7728 11.7898V10.5898H14.7699L14.7728 11.7898ZM8.79999 17.7899H9.99999V17.7872L8.79999 17.7899ZM8.79999 26.7899L9.99999 26.7925V26.7899H8.79999ZM14.7728 32.7899L14.7699 33.9899H14.7728V32.7899ZM23.7328 32.7899V33.9899H23.7357L23.7328 32.7899ZM29.7056 26.7899H28.5056V26.7925L29.7056 26.7899ZM30.9056 20.7899C30.9056 20.127 30.3683 19.5899 29.7056 19.5899C29.0429 19.5899 28.5056 20.127 28.5056 20.7899H30.9056ZM25.4181 11.4951C25.1651 10.8825 24.4635 10.5909 23.8509 10.8438C23.2382 11.0967 22.9467 11.7984 23.1997 12.4109L25.4181 11.4951ZM29.171 16.1952C29.8181 16.0521 30.2267 15.4116 30.0837 14.7644C29.9406 14.1173 29.3001 13.7087 28.6529 13.8517L29.171 16.1952ZM13.28 27.0907C12.6173 27.0907 12.08 27.6278 12.08 28.2907C12.08 28.9534 12.6173 29.4907 13.28 29.4907V27.0907ZM25.2272 29.4907C25.8899 29.4907 26.4272 28.9534 26.4272 28.2907C26.4272 27.6278 25.8899 27.0907 25.2272 27.0907V29.4907ZM19.2528 10.5898H14.7728V12.9898H19.2528V10.5898ZM14.7699 10.5898C10.8013 10.5994 7.5915 13.8238 7.59999 17.7925L9.99999 17.7872C9.99433 15.1439 12.1323 12.9962 14.7757 12.9898L14.7699 10.5898ZM7.59999 17.7899V26.7899H9.99999V17.7899H7.59999ZM7.59999 26.7872C7.5915 30.7558 10.8013 33.9803 14.7699 33.9899L14.7757 31.5899C12.1323 31.5835 9.99433 29.4358 9.99999 26.7925L7.59999 26.7872ZM14.7728 33.9899H23.7328V31.5899H14.7728V33.9899ZM23.7357 33.9899C27.7043 33.9803 30.9141 30.7558 30.9056 26.7872L28.5056 26.7925C28.5112 29.4358 26.3733 31.5835 23.7299 31.5899L23.7357 33.9899ZM30.9056 26.7899V20.7899H28.5056V26.7899H30.9056ZM23.1997 12.4109C23.5115 13.1664 24.1477 14.237 25.0985 15.0643C26.071 15.9106 27.4686 16.5715 29.171 16.1952L28.6529 13.8517C27.9089 14.0162 27.2625 13.7659 26.6739 13.2538C26.0635 12.7226 25.6214 11.9877 25.4181 11.4951L23.1997 12.4109ZM13.28 29.4907H25.2272V27.0907H13.28V29.4907Z" fill="#3EA36C"/>
</svg>
