<svg width="30" height="30" viewBox="0 0 30 30" fill="none" xmlns="http://www.w3.org/2000/svg">
<path d="M18.4195 24.4751C18.4195 24.8543 18.3225 25.2298 18.1341 25.5801C17.9456 25.9305 17.6695 26.2489 17.3212 26.517C16.9731 26.7851 16.5597 26.9979 16.1048 27.143C15.65 27.288 15.1623 27.3628 14.67 27.3628C14.1776 27.3628 13.6901 27.288 13.2351 27.143C12.7802 26.9979 12.3669 26.7851 12.0187 26.517C11.6706 26.2489 11.3944 25.9305 11.2059 25.5801C11.0175 25.2298 10.9205 24.8543 10.9205 24.4751" stroke="#3EA36C" stroke-width="2.5" stroke-linecap="round"/>
<path d="M23.4896 13.639C23.6144 14.6817 23.9029 15.7009 24.3468 16.6581L24.6776 17.3715C25.9395 20.0926 24.2961 23.2733 21.3466 23.8184L21.1464 23.8554C16.8651 24.6467 12.475 24.6467 8.19372 23.8554C5.22008 23.3057 3.64689 20.0159 5.08584 17.3562L5.36886 16.8331C6.14158 15.4049 6.54622 13.8066 6.54622 12.1827V10.5311C6.54622 7.75133 8.11952 5.21106 10.6081 3.97262C12.7721 2.89575 15.2494 2.69551 17.5334 3.37924" stroke="#3EA36C" stroke-width="2.5" stroke-linecap="round"/>
<path d="M22.3248 10.6714C24.0507 10.6714 25.4498 9.27228 25.4498 7.54639C25.4498 5.8205 24.0507 4.42139 22.3248 4.42139C20.5989 4.42139 19.1998 5.8205 19.1998 7.54639C19.1998 9.27228 20.5989 10.6714 22.3248 10.6714Z" stroke="#FF0000" stroke-width="2.5"/>
</svg>
