<svg width="30" height="30" viewBox="0 0 30 30" fill="none" xmlns="http://www.w3.org/2000/svg">
<path d="M25.7307 12.5297C26.2797 14.8517 26.0606 17.2892 25.1062 19.4762C24.1519 21.6631 22.5138 23.4814 20.438 24.6579C18.3622 25.8345 15.9607 26.3059 13.5941 26.0013C11.2276 25.6968 9.02371 24.6326 7.31348 22.9688" stroke="#FFB800" stroke-width="2.8125" stroke-linecap="round"/>
<path d="M4.21977 17.4234C4.05426 16.6532 3.97098 15.8675 3.97134 15.0797C3.96698 12.9152 4.60011 10.7973 5.79175 8.9904C6.98338 7.18346 8.68074 5.76744 10.672 4.91903C12.6633 4.07062 14.8604 3.82739 16.989 4.21969C19.1176 4.612 21.0836 5.62246 22.6416 7.125" stroke="#FFB800" stroke-width="2.8125" stroke-linecap="round"/>
<path d="M17.6869 7.6125L22.7916 7.2375L22.3931 2.45625" stroke="#FFB800" stroke-width="2.8125" stroke-linecap="round"/>
<path d="M12.1463 22.3875L7.04626 22.7625L7.4447 27.5437" stroke="#FFB800" stroke-width="2.8125" stroke-linecap="round"/>
</svg>
