<svg width="30" height="30" viewBox="0 0 30 30" fill="none" xmlns="http://www.w3.org/2000/svg">
<g clip-path="url(#clip0_26_134)">
<path d="M6.56348 30C6.44053 30.0005 6.31874 29.9763 6.20535 29.9287C6.03391 29.8579 5.88734 29.7377 5.78421 29.5835C5.68107 29.4293 5.62601 29.248 5.62598 29.0625V24.375H4.68848C3.44527 24.375 2.25299 23.8811 1.37391 23.0021C0.494837 22.123 0.000976562 20.9307 0.000976562 19.6875V4.6875C0.000976562 3.4443 0.494837 2.25201 1.37391 1.37294C2.25299 0.49386 3.44527 0 4.68848 0L25.3135 0C26.5567 0 27.749 0.49386 28.628 1.37294C29.5071 2.25201 30.001 3.4443 30.001 4.6875V19.6875C30.001 20.9307 29.5071 22.123 28.628 23.0021C27.749 23.8811 26.5567 24.375 25.3135 24.375H12.5766L7.22723 29.7262C7.14 29.8133 7.03649 29.8822 6.9226 29.9292C6.8087 29.9762 6.68667 30.0002 6.56348 30ZM4.68848 1.875C3.94256 1.875 3.22719 2.17132 2.69974 2.69876C2.17229 3.22621 1.87598 3.94158 1.87598 4.6875V19.6875C1.87598 20.4334 2.17229 21.1488 2.69974 21.6762C3.22719 22.2037 3.94256 22.5 4.68848 22.5H6.56348C6.81212 22.5 7.05057 22.5988 7.22639 22.7746C7.40221 22.9504 7.50098 23.1889 7.50098 23.4375V26.7994L11.5247 22.7738C11.6119 22.6867 11.7155 22.6178 11.8294 22.5708C11.9432 22.5238 12.0653 22.4998 12.1885 22.5H25.3135C26.0594 22.5 26.7748 22.2037 27.3022 21.6762C27.8297 21.1488 28.126 20.4334 28.126 19.6875V4.6875C28.126 3.94158 27.8297 3.22621 27.3022 2.69876C26.7748 2.17132 26.0594 1.875 25.3135 1.875H4.68848ZM16.876 16.875C16.876 16.5042 16.766 16.1416 16.56 15.8333C16.354 15.525 16.0611 15.2846 15.7185 15.1427C15.3759 15.0008 14.9989 14.9637 14.6352 15.036C14.2715 15.1084 13.9374 15.287 13.6751 15.5492C13.4129 15.8114 13.2344 16.1455 13.162 16.5092C13.0897 16.8729 13.1268 17.2499 13.2687 17.5925C13.4106 17.9351 13.6509 18.228 13.9593 18.434C14.2676 18.64 14.6301 18.75 15.001 18.75C15.4983 18.75 15.9752 18.5525 16.3268 18.2008C16.6784 17.8492 16.876 17.3723 16.876 16.875ZM18.751 9.375C18.751 8.38044 18.3559 7.42661 17.6526 6.72335C16.9494 6.02009 15.9955 5.625 15.001 5.625C14.0064 5.625 13.0526 6.02009 12.3493 6.72335C11.6461 7.42661 11.251 8.38044 11.251 9.375C11.251 9.62364 11.3497 9.8621 11.5256 10.0379C11.7014 10.2137 11.9398 10.3125 12.1885 10.3125C12.4371 10.3125 12.6756 10.2137 12.8514 10.0379C13.0272 9.8621 13.126 9.62364 13.126 9.375C13.126 9.00416 13.2359 8.64165 13.442 8.33331C13.648 8.02496 13.9408 7.78464 14.2834 7.64273C14.6261 7.50081 15.0031 7.46368 15.3668 7.53603C15.7305 7.60837 16.0646 7.78695 16.3268 8.04918C16.589 8.3114 16.7676 8.64549 16.8399 9.00921C16.9123 9.37292 16.8752 9.74992 16.7332 10.0925C16.5913 10.4351 16.351 10.728 16.0427 10.934C15.7343 11.14 15.3718 11.25 15.001 11.25C14.7523 11.25 14.5139 11.3488 14.3381 11.5246C14.1622 11.7004 14.0635 11.9389 14.0635 12.1875C14.0635 12.4361 14.1622 12.6746 14.3381 12.8504C14.5139 13.0262 14.7523 13.125 15.001 13.125C15.9955 13.125 16.9494 12.7299 17.6526 12.0267C18.3559 11.3234 18.751 10.3696 18.751 9.375Z" fill="#FFB800"/>
</g>
<defs>
<clipPath id="clip0_26_134">
<rect width="30" height="30" fill="white" transform="translate(0.000976562)"/>
</clipPath>
</defs>
</svg>
