<svg width="25" height="25" viewBox="0 0 25 25" fill="none" xmlns="http://www.w3.org/2000/svg">
<path d="M12.5001 15.1042V17.1875M7.29175 10.4467C7.78281 10.4167 8.3882 10.4167 9.16675 10.4167H15.8334C16.612 10.4167 17.2174 10.4167 17.7084 10.4467M7.29175 10.4467C6.67891 10.4841 6.24413 10.5682 5.87303 10.7573C5.28502 11.0569 4.80696 11.5349 4.50735 12.1229C4.16675 12.7915 4.16675 13.6665 4.16675 15.4167V16.875C4.16675 18.6252 4.16675 19.5002 4.50735 20.1687C4.80696 20.7568 5.28502 21.2348 5.87303 21.5344C6.5415 21.875 7.41658 21.875 9.16675 21.875H15.8334C17.5836 21.875 18.4586 21.875 19.1272 21.5344C19.7152 21.2348 20.1932 20.7568 20.4928 20.1687C20.8334 19.5002 20.8334 18.6252 20.8334 16.875V15.4167C20.8334 13.6665 20.8334 12.7915 20.4928 12.1229C20.1932 11.5349 19.7152 11.0569 19.1272 10.7573C18.756 10.5682 18.3212 10.4841 17.7084 10.4467M7.29175 10.4467V8.33333C7.29175 5.45685 9.6236 3.125 12.5001 3.125C15.3765 3.125 17.7084 5.45685 17.7084 8.33333V10.4467" stroke="black" stroke-width="2" stroke-linecap="round" stroke-linejoin="round"/>
</svg>
